<svg 
 xmlns="http://www.w3.org/2000/svg"
 xmlns:xlink="http://www.w3.org/1999/xlink"
 width="21px" height="21px">
<path fill-rule="evenodd"  opacity="0.2" fill="rgb(0, 0, 0)"
 d="M13.479,10.408 L20.177,17.106 C21.068,17.997 21.068,19.441 20.177,20.332 C19.287,21.223 17.842,21.223 16.951,20.332 L10.253,13.633 L4.136,19.751 C3.257,20.629 1.833,20.629 0.954,19.751 C0.075,18.872 0.075,17.447 0.954,16.569 L7.071,10.451 L0.823,4.203 C-0.068,3.312 -0.068,1.868 0.823,0.977 C1.713,0.086 3.158,0.086 4.048,0.977 L10.297,7.226 L16.864,0.659 C17.742,-0.220 19.167,-0.220 20.046,0.659 C20.925,1.537 20.925,2.962 20.046,3.841 L13.479,10.408 Z"/>
</svg>
